<?xml version="1.0" encoding="utf-8"?>
<!-- Generator: Adobe Illustrator 27.9.0, SVG Export Plug-In . SVG Version: 6.00 Build 0)  -->
<svg version="1.1" id="Слой_2" xmlns="http://www.w3.org/2000/svg" xmlns:xlink="http://www.w3.org/1999/xlink" x="0px" y="0px"
	 viewBox="0 0 368.5 107.5" style="enable-background:new 0 0 368.5 107.5;" xml:space="preserve">
<style type="text/css">
	.st0{fill:#F91239;}
</style>
<g>
	<g>
		<path d="M196.4,9.1l-25.4,58.7h-13.4L132.2,9.1h14.7L164.7,51l18.1-41.9H196.4z"/>
		<g>
			<polygon points="247.9,67.8 247.9,56.9 216,56.9 216,43.3 243.2,43.3 243.2,32.8 202.5,32.8 202.5,67.8 			"/>
			<rect x="202.5" y="9.1" class="st0" width="45.4" height="10.9"/>
		</g>
		<path d="M293,67.8l-11.3-16.4H281h-11.8v16.4h-13.6V9.1H281c5.2,0,9.7,0.9,13.5,2.6c3.8,1.7,6.8,4.2,8.8,7.4
			c2.1,3.2,3.1,7,3.1,11.3s-1,8.1-3.1,11.3c-2.1,3.2-5.1,5.6-8.9,7.3l13.2,18.9H293z M289.5,22.8c-2.1-1.8-5.2-2.6-9.3-2.6h-11.1
			v20.5h11.1c4.1,0,7.2-0.9,9.3-2.7c2.1-1.8,3.2-4.3,3.2-7.5C292.7,27.1,291.6,24.6,289.5,22.8z"/>
		<path d="M368.5,9.1v58.7h-13.6V43.8h-26.7v24.1h-13.6V9.1h13.6v23.1h26.7V9.1H368.5z"/>
	</g>
	<g>
		<path d="M159.9,89.2c0.5,0.6,0.7,1.3,0.7,2.2c0,1.2-0.4,2.2-1.3,2.8c-0.9,0.7-2.2,1-3.9,1H149v-14h6c1.5,0,2.7,0.3,3.6,0.9
			c0.9,0.6,1.3,1.5,1.3,2.7c0,0.8-0.2,1.4-0.6,1.9c-0.4,0.5-0.9,0.9-1.6,1.2C158.7,88.2,159.4,88.6,159.9,89.2z M151,87.4h3.9
			c1,0,1.7-0.2,2.2-0.6c0.5-0.4,0.8-1,0.8-1.7c0-0.7-0.3-1.3-0.8-1.7c-0.5-0.4-1.3-0.6-2.2-0.6H151V87.4z M158.6,91.3
			c0-0.8-0.3-1.4-0.8-1.8c-0.5-0.4-1.3-0.6-2.4-0.6H151v4.8h4.4C157.6,93.7,158.6,92.9,158.6,91.3z"/>
		<path d="M183.8,93.5v1.7h-10.2v-14h9.9V83h-7.9v4.3h7V89h-7v4.5H183.8z"/>
		<path d="M196.6,81.2h10.6v1.7h-8.6v4h4.4c1.7,0,2.9,0.3,3.8,1c0.9,0.7,1.3,1.7,1.3,3c0,1.4-0.5,2.4-1.4,3.2
			c-0.9,0.7-2.3,1.1-4,1.1h-6V81.2z M202.5,93.7c1.1,0,2-0.2,2.6-0.7c0.6-0.4,0.9-1.1,0.9-1.9c0-1.7-1.2-2.5-3.5-2.5h-4v5.2H202.5z"
			/>
		<path d="M219.8,88.9h5.4v1.7h-5.4V88.9z"/>
		<path d="M240.8,94.5c-1.1-0.6-2-1.5-2.7-2.6c-0.6-1.1-1-2.3-1-3.7c0-1.4,0.3-2.6,1-3.7c0.6-1.1,1.5-1.9,2.7-2.6
			c1.1-0.6,2.4-0.9,3.8-0.9c1.1,0,2.1,0.2,3,0.6c0.9,0.4,1.7,0.9,2.3,1.6l-1.3,1.3c-1.1-1.1-2.4-1.7-4-1.7c-1,0-2,0.2-2.8,0.7
			c-0.8,0.5-1.5,1.1-2,1.9c-0.5,0.8-0.7,1.7-0.7,2.8s0.2,1.9,0.7,2.8c0.5,0.8,1.1,1.5,2,1.9c0.8,0.5,1.8,0.7,2.8,0.7
			c1.6,0,2.9-0.6,4-1.7l1.3,1.3c-0.6,0.7-1.4,1.3-2.3,1.6c-0.9,0.4-1.9,0.6-3,0.6C243.2,95.4,241.9,95.1,240.8,94.5z"/>
		<path d="M271.8,83H267v12.3h-2V83h-4.8v-1.7h11.6V83z"/>
		<path d="M294.8,81.2l-6.2,11.6c-0.5,0.9-1.1,1.6-1.7,2.1c-0.7,0.5-1.4,0.7-2.2,0.7c-0.6,0-1.2-0.1-1.9-0.4l0.5-1.6
			c0.5,0.2,0.9,0.3,1.3,0.3c0.9,0,1.6-0.5,2.2-1.4l0.3-0.5l-5.7-10.6h2.1l4.6,8.9l4.7-8.9H294.8z"/>
		<path d="M319.7,93.5v4.8h-1.9v-3.1h-11.6l0,3.1h-1.9l0-4.8h0.7c0.9-0.1,1.5-0.8,1.9-2.1c0.4-1.3,0.6-3.2,0.7-5.7l0.1-4.5h9.9v12.3
			H319.7z M308.9,90.9c-0.2,1.3-0.6,2.2-1.2,2.7h7.9V83h-6.2l-0.1,2.9C309.3,87.9,309.2,89.6,308.9,90.9z"/>
		<path d="M332.1,81.2h2v10.8l8.3-10.8h1.8v14h-2V84.5l-8.3,10.8h-1.8V81.2z"/>
		<path d="M368.5,81.2v14h-2v-4.1h-3.9c-0.2,0-0.4,0-0.5,0l-2.8,4.1h-2.1l3.1-4.5c-1-0.3-1.8-0.9-2.3-1.7c-0.5-0.8-0.8-1.7-0.8-2.9
			c0-1.6,0.5-2.8,1.5-3.7c1-0.9,2.4-1.3,4.1-1.3H368.5z M360.1,88.7c0.6,0.6,1.5,0.8,2.7,0.8h3.7V83h-3.6c-1.2,0-2.1,0.3-2.8,0.8
			c-0.6,0.6-1,1.4-1,2.4C359.2,87.3,359.5,88.1,360.1,88.7z"/>
	</g>
	<g>
		<path class="st0" d="M97.4,0H10C4.5,0,0,4.5,0,10s4.5,10,10,10h63.2L2.9,90.3c-3.9,3.9-3.9,10.3,0,14.2c3.9,3.9,10.3,3.9,14.2,0
			l70.3-70.3v63.2c0,5.5,4.5,10,10,10c5.5,0,10-4.5,10-10V10C107.5,4.5,103,0,97.4,0z"/>
		<path class="st0" d="M61.8,72.9L44.3,90.3c-3.9,3.9-3.9,10.3,0,14.2c3.9,3.9,10.3,3.9,14.2,0l17.4-17.4c3.9-3.9,3.9-10.3,0-14.2
			C72,69,65.7,69,61.8,72.9z"/>
	</g>
</g>
</svg>
